<?xml version="1.0" encoding="UTF-8" standalone="no"?>
<!-- Uploaded to: SVG Repo, www.svgrepo.com, Generator: SVG Repo Mixer Tools -->

<svg
   width="488.77634"
   height="463.68347"
   viewBox="0 0 14.66329 13.910504"
   fill="none"
   version="1.1"
   id="svg1"
   sodipodi:docname="wipi-logo.svg"
   xml:space="preserve"
   inkscape:version="1.4.2 (ebf0e940d0, 2025-05-08)"
   xmlns:inkscape="http://www.inkscape.org/namespaces/inkscape"
   xmlns:sodipodi="http://sodipodi.sourceforge.net/DTD/sodipodi-0.dtd"
   xmlns="http://www.w3.org/2000/svg"
   xmlns:svg="http://www.w3.org/2000/svg"><defs
     id="defs1" /><sodipodi:namedview
     id="namedview1"
     pagecolor="#ffffff"
     bordercolor="#000000"
     borderopacity="0.25"
     inkscape:showpageshadow="2"
     inkscape:pageopacity="0.0"
     inkscape:pagecheckerboard="0"
     inkscape:deskcolor="#d1d1d1"
     showgrid="false"
     inkscape:zoom="1.0337433"
     inkscape:cx="202.17786"
     inkscape:cy="248.12737"
     inkscape:window-width="1900"
     inkscape:window-height="1034"
     inkscape:window-x="0"
     inkscape:window-y="0"
     inkscape:window-maximized="0"
     inkscape:current-layer="System / Wifi_High"><inkscape:page
       x="0"
       y="0"
       width="14.66329"
       height="13.910504"
       id="page2"
       margin="0"
       bleed="0" /></sodipodi:namedview><g
     id="System / Wifi_High"
     transform="translate(-4.64941,-7.5000214)"
     style="stroke:#adadad;stroke-opacity:1"
     inkscape:label="WiPi"><path
       id="Vector"
       d="m 8.34277,14.5899 c 0.46584,-0.4996 1.0291,-0.8984 1.65503,-1.1719 0.6259,-0.2734 1.3017,-0.4155 1.9848,-0.4179 0.683,-0.0024 1.3593,0.1352 1.9871,0.4043 0.6278,0.2691 1.194,0.6639 1.6633,1.1602 M 6.14941,11.5439 C 6.89476,10.7446 7.79597,10.1066 8.79745,9.66902 9.79893,9.23148 10.8793,9.00389 11.9721,9.00007 c 1.0929,-0.00381 2.1745,0.21644 3.179,0.64697 1.0045,0.43056 1.9106,1.06236 2.6616,1.85646 M 12,19.0001 c -0.5523,0 -1,-0.4477 -1,-1 0,-0.5523 0.4477,-1 1,-1 0.5523,0 1,0.4477 1,1 0,0.5523 -0.4477,1 -1,1 z"
       stroke="#000000"
       stroke-width="2"
       stroke-linecap="round"
       stroke-linejoin="round"
       sodipodi:nodetypes="ccssccccccsssss"
       inkscape:export-filename="wifi-high-modified.svg"
       inkscape:export-xdpi="96"
       inkscape:export-ydpi="96"
       style="stroke:#ca3232;stroke-width:3;stroke-dasharray:none;stroke-opacity:1"
       inkscape:label="Wireless Signal Rose" /><path
       id="path1"
       d="m 8.34277,14.5899 c 0.46584,-0.4996 1.0291,-0.8984 1.65503,-1.1719 0.6259,-0.2734 1.3017,-0.4155 1.9848,-0.4179 0.683,-0.0024 1.3593,0.1352 1.9871,0.4043 0.6278,0.2691 1.194,0.6639 1.6633,1.1602 M 6.14941,11.5439 C 6.89476,10.7446 7.79597,10.1066 8.79745,9.66902 9.79893,9.23148 10.8793,9.00389 11.9721,9.00007 c 1.0929,-0.00381 2.1745,0.21644 3.179,0.64697 1.0045,0.43056 1.9106,1.06236 2.6616,1.85646 M 12,19.0001 c -0.5523,0 -1,-0.4477 -1,-1 0,-0.5523 0.4477,-1 1,-1 0.5523,0 1,0.4477 1,1 0,0.5523 -0.4477,1 -1,1 z"
       stroke="#000000"
       stroke-width="2"
       stroke-linecap="round"
       stroke-linejoin="round"
       sodipodi:nodetypes="ccssccccccsssss"
       inkscape:export-filename="wifi-high-modified.svg"
       inkscape:export-xdpi="96"
       inkscape:export-ydpi="96"
       style="stroke:#ffffff;stroke-opacity:1"
       inkscape:label="Wireless Signal White" /><g
       id="g4"
       transform="matrix(0.01653628,0,0,0.0165337,9.2895701,15.627538)"
       inkscape:label="pie">
	<path
   style="fill:#d9a460;stroke:#ca3232;stroke-width:47.1727;stroke-dasharray:none;stroke-opacity:1;paint-order:markers stroke fill"
   d="m 149.46,2.242 c 7.314,4.101 19.29,4.101 26.605,0 7.317,-4.101 17.959,-2.417 23.652,3.745 5.689,6.161 17.074,9.86 25.299,8.222 8.227,-1.641 17.826,3.251 21.334,10.868 3.51,7.62 13.195,14.657 21.525,15.639 8.33,0.982 15.949,8.603 16.932,16.933 0.983,8.33 8.02,18.016 15.639,21.525 7.617,3.509 12.51,13.107 10.871,21.333 -1.641,8.225 2.059,19.612 8.219,25.302 6.162,5.691 7.848,16.333 3.746,23.65 -4.102,7.315 -4.102,19.29 0,26.605 4.102,7.317 2.416,17.959 -3.746,23.65 -6.16,5.691 -9.859,17.077 -8.219,25.302 1.639,8.226 -3.254,17.824 -10.871,21.333 -7.619,3.51 -14.656,13.195 -15.639,21.525 -0.982,8.33 -8.602,15.95 -16.932,16.933 -8.33,0.981 -18.016,8.02 -21.525,15.639 -3.508,7.617 -13.107,12.51 -21.334,10.869 -8.225,-1.638 -19.609,2.061 -25.299,8.221 -5.693,6.162 -16.335,7.846 -23.652,3.746 -7.315,-4.102 -19.291,-4.102 -26.605,0 -7.317,4.1 -17.959,2.416 -23.65,-3.746 -5.691,-6.16 -17.077,-9.858 -25.302,-8.221 -8.226,1.641 -17.823,-3.252 -21.333,-10.869 -3.508,-7.618 -13.195,-14.657 -21.523,-15.639 -8.332,-0.982 -15.951,-8.603 -16.934,-16.933 -0.983,-8.33 -8.02,-18.016 -15.64,-21.525 -7.617,-3.509 -12.509,-13.107 -10.868,-21.333 1.64,-8.225 -2.061,-19.61 -8.222,-25.302 -6.162,-5.691 -7.846,-16.333 -3.746,-23.65 4.102,-7.315 4.102,-19.29 0,-26.605 -4.1,-7.317 -2.416,-17.959 3.746,-23.65 6.161,-5.689 9.861,-17.077 8.222,-25.302 -1.641,-8.226 3.251,-17.824 10.868,-21.333 7.62,-3.51 14.656,-13.195 15.64,-21.525 0.982,-8.33 8.602,-15.95 16.934,-16.933 8.328,-0.981 18.016,-8.019 21.523,-15.639 3.51,-7.617 13.107,-12.509 21.333,-10.868 8.225,1.639 19.61,-2.061 25.302,-8.222 5.691,-6.162 16.333,-7.845 23.65,-3.745 z"
   id="path1-0"
   inkscape:label="border" />
	<circle
   style="fill:#997443"
   cx="162.763"
   cy="162.76199"
   r="141.33701"
   id="circle1" />
	<circle
   style="fill:#ca3232;fill-opacity:1"
   cx="162.76199"
   cy="162.76199"
   r="131.981"
   id="circle2" />
	<path
   style="fill:#d9a460"
   d="m 51.89,91.145 182.49,182.49 c 12.189,-7.892 22.998,-17.736 31.977,-29.096 L 80.986,59.167 C 69.626,68.146 59.782,78.954 51.89,91.145 Z m -21.108,71.617 c 0,9.997 1.118,19.731 3.224,29.091 l 99.666,99.667 c 9.361,2.105 19.096,3.224 29.092,3.224 10.832,0 21.355,-1.314 31.428,-3.775 L 34.557,131.333 c -2.461,10.073 -3.775,20.597 -3.775,31.429 z M 294.45,154.038 171.487,31.074 c -2.885,-0.188 -5.792,-0.294 -8.724,-0.294 -15.738,0 -30.832,2.76 -44.828,7.814 L 286.929,207.59 c 5.055,-13.996 7.815,-29.09 7.815,-44.828 -0.001,-2.932 -0.106,-5.839 -0.294,-8.724 z"
   id="path2" />
	<path
   style="fill:#b3874f"
   d="m 118.08,157.334 44.276,44.277 30.537,-30.537 -44.277,-44.276 z M 133.596,111.777 89.319,67.5 58.782,98.036 103.059,142.313 Z M 192.892,52.481 171.487,31.075 c -2.885,-0.188 -5.792,-0.294 -8.724,-0.294 -15.572,0 -30.512,2.706 -44.383,7.659 l -0.3,0.3 44.276,44.276 z m 28.762,89.833 30.537,-30.536 -44.28,-44.278 -30.535,30.536 z m -44.276,74.318 44.275,44.276 30.537,-30.537 -44.277,-44.275 z m 117.072,-62.594 -27.24,-27.24 -30.537,30.536 44.277,44.276 10.797,-10.797 c 1.959,-9.041 2.996,-18.425 2.996,-28.052 0,-2.931 -0.105,-5.838 -0.293,-8.723 z M 34.557,131.333 c -2.461,10.073 -3.775,20.597 -3.775,31.429 0,9.997 1.118,19.731 3.224,29.091 l 9.758,9.758 30.535,-30.536 z m 83.523,144.596 15.591,15.591 c 9.361,2.105 19.096,3.224 29.092,3.224 9.631,0 19.017,-1.045 28.061,-3.005 l 2.068,-2.069 -44.275,-44.276 z m -28.761,-89.833 -30.536,30.535 44.278,44.277 30.535,-30.536 z"
   id="path3" />
	<path
   style="fill:#d9a460"
   d="m 162.763,30.78 c -8.704,0 -17.209,0.851 -25.443,2.46 L 33.241,137.319 c -1.608,8.233 -2.46,16.738 -2.46,25.442 0,11.659 1.519,22.964 4.357,33.732 L 196.493,35.138 C 185.727,32.299 174.422,30.78 162.763,30.78 Z m 124.918,89.287 -167.612,167.614 c 13.392,4.575 27.752,7.063 42.694,7.063 3.995,0 7.945,-0.188 11.85,-0.535 L 294.209,174.612 c 0.348,-3.904 0.535,-7.855 0.535,-11.85 -0.001,-14.943 -2.487,-29.303 -7.063,-42.695 z M 236.118,53.034 53.035,236.118 c 8.073,12.052 18.081,22.696 29.576,31.497 L 267.616,82.61 c -8.8,-11.495 -19.445,-21.504 -31.498,-29.576 z"
   id="path4" />
</g></g></svg>
